<svg width="50" height="50" viewBox="0 0 50 50" fill="none" xmlns="http://www.w3.org/2000/svg">
<rect width="50" height="50" rx="3" fill="#7036BE"/>
<path d="M20.032 22.832L16.912 34H14.272L12.176 26.048L9.984 34L7.36 34.016L4.352 22.832H6.752L8.72 31.504L10.992 22.832H13.488L15.632 31.456L17.616 22.832H20.032ZM20.9186 29.536C20.9186 28.64 21.0946 27.8453 21.4466 27.152C21.8093 26.4587 22.2946 25.9253 22.9026 25.552C23.5213 25.1787 24.2093 24.992 24.9666 24.992C25.628 24.992 26.204 25.1253 26.6946 25.392C27.196 25.6587 27.596 25.9947 27.8946 26.4V25.136H30.1506V34H27.8946V32.704C27.6066 33.12 27.2066 33.4667 26.6946 33.744C26.1933 34.0107 25.612 34.144 24.9506 34.144C24.204 34.144 23.5213 33.952 22.9026 33.568C22.2946 33.184 21.8093 32.6453 21.4466 31.952C21.0946 31.248 20.9186 30.4427 20.9186 29.536ZM27.8946 29.568C27.8946 29.024 27.788 28.56 27.5746 28.176C27.3613 27.7813 27.0733 27.4827 26.7106 27.28C26.348 27.0667 25.9586 26.96 25.5426 26.96C25.1266 26.96 24.7426 27.0613 24.3906 27.264C24.0386 27.4667 23.7506 27.7653 23.5266 28.16C23.3133 28.544 23.2066 29.0027 23.2066 29.536C23.2066 30.0693 23.3133 30.5387 23.5266 30.944C23.7506 31.3387 24.0386 31.6427 24.3906 31.856C24.7533 32.0693 25.1373 32.176 25.5426 32.176C25.9586 32.176 26.348 32.0747 26.7106 31.872C27.0733 31.6587 27.3613 31.36 27.5746 30.976C27.788 30.5813 27.8946 30.112 27.8946 29.568ZM35.8104 24.992C36.4717 24.992 37.053 25.1253 37.5544 25.392C38.0557 25.648 38.4504 25.984 38.7384 26.4V25.136H40.9944V34.064C40.9944 34.8853 40.829 35.616 40.4984 36.256C40.1677 36.9067 39.6717 37.4187 39.0104 37.792C38.349 38.176 37.549 38.368 36.6104 38.368C35.3517 38.368 34.317 38.0747 33.5064 37.488C32.7064 36.9013 32.253 36.1013 32.1464 35.088H34.3704C34.4877 35.4933 34.7384 35.8133 35.1224 36.048C35.517 36.2933 35.9917 36.416 36.5464 36.416C37.197 36.416 37.725 36.2187 38.1304 35.824C38.5357 35.44 38.7384 34.8533 38.7384 34.064V32.688C38.4504 33.104 38.0504 33.4507 37.5384 33.728C37.037 34.0053 36.461 34.144 35.8104 34.144C35.0637 34.144 34.381 33.952 33.7624 33.568C33.1437 33.184 32.653 32.6453 32.2904 31.952C31.9384 31.248 31.7624 30.4427 31.7624 29.536C31.7624 28.64 31.9384 27.8453 32.2904 27.152C32.653 26.4587 33.1384 25.9253 33.7464 25.552C34.365 25.1787 35.053 24.992 35.8104 24.992ZM38.7384 29.568C38.7384 29.024 38.6317 28.56 38.4184 28.176C38.205 27.7813 37.917 27.4827 37.5544 27.28C37.1917 27.0667 36.8024 26.96 36.3864 26.96C35.9704 26.96 35.5864 27.0613 35.2344 27.264C34.8824 27.4667 34.5944 27.7653 34.3704 28.16C34.157 28.544 34.0504 29.0027 34.0504 29.536C34.0504 30.0693 34.157 30.5387 34.3704 30.944C34.5944 31.3387 34.8824 31.6427 35.2344 31.856C35.597 32.0693 35.981 32.176 36.3864 32.176C36.8024 32.176 37.1917 32.0747 37.5544 31.872C37.917 31.6587 38.205 31.36 38.4184 30.976C38.6317 30.5813 38.7384 30.112 38.7384 29.568Z" fill="white"/>
<path d="M28.424 21.126C27.7053 21.126 27.052 20.9627 26.464 20.636C25.8853 20.3093 25.428 19.8473 25.092 19.25C24.7653 18.6433 24.602 17.9433 24.602 17.15C24.602 16.366 24.77 15.6753 25.106 15.078C25.4513 14.4713 25.918 14.0093 26.506 13.692C27.094 13.3653 27.752 13.202 28.48 13.202C29.208 13.202 29.866 13.3653 30.454 13.692C31.042 14.0093 31.504 14.4667 31.84 15.064C32.1853 15.6613 32.358 16.3567 32.358 17.15C32.358 17.9433 32.1807 18.6433 31.826 19.25C31.4807 19.8473 31.0093 20.3093 30.412 20.636C29.8147 20.9627 29.152 21.126 28.424 21.126ZM28.424 20.006C28.8813 20.006 29.3107 19.8987 29.712 19.684C30.1133 19.4693 30.4353 19.1473 30.678 18.718C30.93 18.2887 31.056 17.766 31.056 17.15C31.056 16.534 30.9347 16.0113 30.692 15.582C30.4493 15.1527 30.132 14.8353 29.74 14.63C29.348 14.4153 28.9233 14.308 28.466 14.308C27.9993 14.308 27.57 14.4153 27.178 14.63C26.7953 14.8353 26.4873 15.1527 26.254 15.582C26.0207 16.0113 25.904 16.534 25.904 17.15C25.904 17.7753 26.016 18.3027 26.24 18.732C26.4733 19.1613 26.7813 19.4833 27.164 19.698C27.5467 19.9033 27.9667 20.006 28.424 20.006ZM37.7711 13.188C38.7044 13.188 39.4604 13.4727 40.0391 14.042C40.6177 14.602 40.9071 15.414 40.9071 16.478V21H39.6471V16.66C39.6471 15.8947 39.4557 15.3113 39.0731 14.91C38.6904 14.4993 38.1677 14.294 37.5051 14.294C36.8331 14.294 36.2964 14.504 35.8951 14.924C35.5031 15.344 35.3071 15.9553 35.3071 16.758V21H34.0331V13.328H35.3071V14.42C35.5591 14.028 35.8997 13.7247 36.3291 13.51C36.7677 13.2953 37.2484 13.188 37.7711 13.188Z" fill="#EB5425"/>
</svg>
